<svg width="40" height="40" viewBox="0 0 24 24" fill="none" xmlns="http://www.w3.org/2000/svg">
<path d="M17.4722 14.3854C17.2023 15.5496 16.3263 16.5939 15.2281 17.3045C14.334 17.8687 13.3159 18.2398 12.2711 18.3797C11.2263 18.5197 10.1798 18.4253 9.19943 18.1057C8.21908 17.786 7.33649 17.2494 6.62003 16.5368L3 18L4.46979 12.5221C3.96321 11.6661 3.66691 10.7109 3.59969 9.73352C3.53247 8.75618 3.70617 7.78401 4.09997 6.8911C4.49377 6.00078 5.09707 5.21443 5.86433 4.5905C6.63159 3.96658 7.54011 3.52084 8.52087 3.28684C9.40012 3.02003 12.5001 3.19003 14.5001 5.59003C15.6579 6.74558 16.3475 8.23963 16.4674 9.80017C16.5873 11.3607 16.1287 12.8878 15.176 14.1209L15.1872 13.9354C15.7872 13.9354 16.7872 14.2354 17.4872 15.2354C18.3311 16.3995 18.7421 17.2238 18.4722 18.388C18.2023 17.2238 17.7421 16.0596 17.4722 14.3854Z" stroke="white" stroke-width="1.5" stroke-linecap="round" stroke-linejoin="round"/>
<path d="M11.75 11.25C11.75 11.25 12.35 10.25 13.75 10.25C14.6533 10.25 15.375 10.9717 15.375 11.875C15.375 13.625 12.75 14.75 12.75 14.75" stroke="white" stroke-width="1.5" stroke-linecap="round" stroke-linejoin="round"/>
</svg>

